<svg width="1112" height="702" viewBox="0 0 1112 702" fill="none"
  xmlns="http://www.w3.org/2000/svg">
  <path d="M1099.79 54.5802C1105.2 54.5802 1109.59 50.197 1109.59 44.7901C1109.59 39.3832 1105.2 35 1099.79 35C1094.38 35 1090 39.3832 1090 44.7901C1090 50.197 1094.38 54.5802 1099.79 54.5802Z" stroke="#5A2C71" stroke-width="3" stroke-linecap="round" stroke-linejoin="round"/>
  <path d="M258.004 234C266.291 234 273.009 227.284 273.009 219C273.009 210.716 266.291 204 258.004 204C249.718 204 243 210.716 243 219C243 227.284 249.718 234 258.004 234Z" stroke="#5A2C71" stroke-width="3" stroke-linecap="round" stroke-linejoin="round"/>
  <path d="M916.279 80.1317L896.916 85.3188C896.25 85.4957 895.642 85.845 895.154 86.3315C894.665 86.818 894.314 87.4246 894.135 88.0902C893.956 88.7557 893.955 89.4567 894.133 90.1225C894.311 90.7883 894.662 91.3954 895.149 91.8827L909.324 106.053C909.812 106.541 910.419 106.891 911.085 107.069C911.751 107.247 912.452 107.247 913.118 107.068C913.783 106.889 914.39 106.537 914.877 106.049C915.364 105.561 915.713 104.953 915.89 104.287L921.078 84.9294C921.255 84.2654 921.254 83.5666 921.076 82.9031C920.897 82.2395 920.547 81.6345 920.061 81.1486C919.575 80.6628 918.97 80.3131 918.306 80.1346C917.643 79.9561 916.944 79.9551 916.279 80.1317V80.1317Z" stroke="#5A2C71" stroke-width="3" stroke-linecap="round" stroke-linejoin="round"/>
  <path d="M278.8 28.9471L298.163 23.76C298.829 23.5831 299.437 23.2338 299.926 22.7473C300.414 22.2608 300.765 21.6542 300.944 20.9886C301.124 20.3231 301.124 19.6221 300.946 18.9563C300.768 18.2905 300.417 17.6834 299.93 17.1961L285.755 3.02549C285.268 2.53805 284.66 2.18764 283.994 2.00954C283.328 1.83144 282.627 1.83195 281.961 2.01103C281.296 2.1901 280.689 2.54141 280.202 3.02956C279.716 3.51772 279.366 4.12546 279.189 4.79159L274.001 24.1494C273.824 24.8134 273.825 25.5122 274.003 26.1757C274.182 26.8393 274.532 27.4443 275.018 27.9302C275.504 28.416 276.109 28.7657 276.773 28.9442C277.436 29.1227 278.135 29.1237 278.8 28.9471V28.9471Z" stroke="#A3117B" stroke-width="3" stroke-linecap="round" stroke-linejoin="round"/>
  <path d="M1003.26 152.828H1065.67" stroke="#5A2C71" stroke-width="3" stroke-linecap="round" stroke-linejoin="round" stroke-dasharray="0.23 7.9"/>
  <path d="M3.56592 205.855V145.682" stroke="#5A2C71" stroke-width="3" stroke-linecap="round" stroke-linejoin="round" stroke-dasharray="0.22 7.62"/>
  <path d="M42.9511 266.242L7.36004 275.776C6.13529 276.101 5.01783 276.743 4.12031 277.638C3.22279 278.532 2.57688 279.647 2.24763 280.87C1.91838 282.094 1.91745 283.382 2.2449 284.606C2.57235 285.83 3.21661 286.946 4.11282 287.841L30.1669 313.888C31.0628 314.784 32.179 315.428 33.4031 315.755C34.6273 316.083 35.9161 316.082 37.1397 315.752C38.3634 315.423 39.4787 314.778 40.3732 313.88C41.2678 312.983 41.91 311.866 42.2351 310.642L51.7721 275.061C52.0968 273.84 52.095 272.556 51.7668 271.336C51.4387 270.116 50.7958 269.004 49.9024 268.111C49.0091 267.218 47.8967 266.575 46.6767 266.247C45.4568 265.919 44.172 265.918 42.9511 266.242V266.242Z" stroke="#5A2C71" stroke-width="3" stroke-linecap="round" stroke-linejoin="round"/>
  <path d="M345.966 664.007L364.387 695.918C365.018 697.017 365.928 697.93 367.024 698.565C368.12 699.201 369.364 699.536 370.631 699.538C371.898 699.539 373.142 699.206 374.24 698.573C375.337 697.94 376.248 697.029 376.881 695.932L395.297 664.024C395.931 662.927 396.264 661.682 396.263 660.415C396.263 659.148 395.928 657.903 395.294 656.806C394.659 655.71 393.747 654.799 392.648 654.168C391.55 653.536 390.305 653.204 389.038 653.207L352.201 653.204C350.938 653.207 349.698 653.541 348.605 654.173C347.512 654.806 346.604 655.715 345.973 656.809C345.341 657.903 345.008 659.144 345.007 660.407C345.006 661.67 345.337 662.912 345.966 664.007V664.007Z" stroke="#5A2C71" stroke-width="3" stroke-linecap="round" stroke-linejoin="round"/>
</svg>
